<svg width="400" height="400" viewBox="0 0 400 400" fill="none" xmlns="http://www.w3.org/2000/svg">
<path d="M372.95 364.309C372.967 366.199 370.596 367.055 369.401 365.592L254.649 225.07C253.699 223.907 251.845 224.164 251.174 225.508C241.801 244.278 222.406 257.169 200 257.169C177.95 257.169 158.816 244.685 149.279 226.4C148.584 225.068 146.727 224.843 145.797 226.023L33.5229 368.531C32.3537 370.015 29.9685 369.2 29.952 367.31L27.0173 32.0008C27.0077 30.8963 27.8952 29.993 28.9998 29.9833L37.6418 29.9077C38.732 29.8981 39.6277 30.7695 39.6719 31.8589C42.3034 96.7141 87.7205 150.922 149.64 169.895C150.508 170.161 151.444 169.797 151.936 169.035C162.114 153.269 179.838 142.831 200 142.831C219.803 142.831 237.254 152.901 247.513 168.199C248.018 168.952 248.96 169.299 249.823 169.018C311.403 148.965 355.867 93.9714 357.363 29.0795C357.388 27.9895 358.269 27.1026 359.359 27.093L367.999 27.0174C369.103 27.0077 370.007 27.8953 370.016 28.9998L372.95 364.309Z" fill="white"/>
</svg>
